<?xml version="1.0" encoding="UTF-8" standalone="no"?>
<svg
   xmlns:dc="http://purl.org/dc/elements/1.1/"
   xmlns:cc="http://creativecommons.org/ns#"
   xmlns:rdf="http://www.w3.org/1999/02/22-rdf-syntax-ns#"
   xmlns:svg="http://www.w3.org/2000/svg"
   xmlns="http://www.w3.org/2000/svg"
   xmlns:sodipodi="http://sodipodi.sourceforge.net/DTD/sodipodi-0.dtd"
   xmlns:inkscape="http://www.inkscape.org/namespaces/inkscape"
   sodipodi:docname="tab.svg"
   inkscape:version="1.0 (4035a4fb49, 2020-05-01)"
   id="svg8"
   version="1.1"
   viewBox="0 0 16.933333 16.933334"
   height="64"
   width="64">
  <defs
     id="defs2" />
  <sodipodi:namedview
     inkscape:window-maximized="0"
     inkscape:window-y="0"
     inkscape:window-x="0"
     inkscape:window-height="728"
     inkscape:window-width="1366"
     units="px"
     showgrid="false"
     inkscape:document-rotation="0"
     inkscape:current-layer="layer1"
     inkscape:document-units="mm"
     inkscape:cy="30.229753"
     inkscape:cx="42.905509"
     inkscape:zoom="7.9195959"
     inkscape:pageshadow="2"
     inkscape:pageopacity="0.0"
     borderopacity="1.0"
     bordercolor="#666666"
     pagecolor="#ffffff"
     id="base" />
  <metadata
     id="metadata5">
    <rdf:RDF>
      <cc:Work
         rdf:about="">
        <dc:format>image/svg+xml</dc:format>
        <dc:type
           rdf:resource="http://purl.org/dc/dcmitype/StillImage" />
        <dc:title />
      </cc:Work>
    </rdf:RDF>
  </metadata>
  <g
     id="layer1"
     inkscape:groupmode="layer"
     inkscape:label="Слой 1">
    <path
       style="fill:#f2f2f2;stroke-width:0.0334087"
       d="M 1.8974231,11.890401 V 8.783393 h 6.3810601 6.3810598 v 3.107008 3.107008 H 8.2784832 1.8974231 Z"
       id="path10" />
    <path
       style="fill:#f2f2f2;stroke-width:0.114967"
       d="M 7.4208188,8.4175929 C 5.9576539,8.167268 4.7927245,7.4594356 4.1436523,6.426325 3.9052051,6.0467954 3.851175,5.7905962 3.8521485,5.0440735 3.8531766,4.2405691 3.8977126,4.0614326 4.2135815,3.5896547 4.6815317,2.8907294 5.4898559,2.2790375 6.3823121,1.9484882 7.0026118,1.7187409 7.2666013,1.6840462 8.3944184,1.6840462 c 1.2301049,0 1.3407759,0.018135 2.1118476,0.3460929 2.147279,0.9132928 2.996918,2.7253717 2.047699,4.36726 C 11.681711,7.906158 9.4849113,8.7707277 7.4208188,8.4175929 Z"
       id="path15" />
  </g>
</svg>
